<mxfile host="app.diagrams.net" modified="2024-01-13T09:32:17.150Z" agent="Mozilla/5.0 (Windows NT 10.0; Win64; x64) AppleWebKit/537.36 (KHTML, like Gecko) Chrome/119.0.0.0 Safari/537.36" etag="_LUKPEWwcFEXxlLFuwxT" version="22.1.18" type="github">
  <diagram name="第 1 页" id="LBM0UnZCi8KfVHlJfuz2">
    <mxGraphModel dx="1509" dy="455" grid="1" gridSize="10" guides="1" tooltips="1" connect="1" arrows="1" fold="1" page="1" pageScale="1" pageWidth="827" pageHeight="1169" math="0" shadow="0">
      <root>
        <mxCell id="0" />
        <mxCell id="1" parent="0" />
        <mxCell id="m9NgzSsKbRpxbCLd3ClR-2" value="&lt;font style=&quot;font-size: 8px;&quot;&gt;0.028&lt;/font&gt;" style="whiteSpace=wrap;html=1;strokeColor=#DBDBDB;fillColor=#cce5ff;fontSize=8;" vertex="1" parent="1">
          <mxGeometry x="50" y="340" width="30" height="25" as="geometry" />
        </mxCell>
        <mxCell id="m9NgzSsKbRpxbCLd3ClR-3" value="&lt;font style=&quot;font-size: 8px;&quot;&gt;0.028&lt;/font&gt;" style="whiteSpace=wrap;html=1;fillColor=#cce5ff;strokeColor=#DBDBDB;fontSize=8;" vertex="1" parent="1">
          <mxGeometry x="80" y="340" width="30" height="25" as="geometry" />
        </mxCell>
        <mxCell id="m9NgzSsKbRpxbCLd3ClR-4" value="&lt;pre style=&quot;background-color:#2b2b2b;color:#a9b7c6;font-family:&#39;JetBrains Mono&#39;,monospace;font-size:15.0pt;&quot;&gt;the wait staff is very friendly , if your not rude or picky&lt;/pre&gt;" style="text;html=1;align=center;verticalAlign=middle;resizable=0;points=[];autosize=1;strokeColor=none;fillColor=none;" vertex="1" parent="1">
          <mxGeometry x="-80" y="173" width="670" height="80" as="geometry" />
        </mxCell>
        <mxCell id="m9NgzSsKbRpxbCLd3ClR-21" value="&lt;font style=&quot;font-size: 8px;&quot;&gt;0.028&lt;/font&gt;" style="whiteSpace=wrap;html=1;strokeColor=#DBDBDB;fillColor=#cce5ff;fontSize=8;" vertex="1" parent="1">
          <mxGeometry x="110" y="340" width="30" height="25" as="geometry" />
        </mxCell>
        <mxCell id="m9NgzSsKbRpxbCLd3ClR-22" value="&lt;font style=&quot;font-size: 8px;&quot;&gt;0.028&lt;/font&gt;" style="whiteSpace=wrap;html=1;fillColor=#cce5ff;strokeColor=#DBDBDB;fontSize=8;" vertex="1" parent="1">
          <mxGeometry x="140" y="340" width="30" height="25" as="geometry" />
        </mxCell>
        <mxCell id="m9NgzSsKbRpxbCLd3ClR-23" value="&lt;font style=&quot;font-size: 8px;&quot;&gt;0.028&lt;/font&gt;" style="whiteSpace=wrap;html=1;strokeColor=#DBDBDB;fillColor=#cce5ff;fontSize=8;" vertex="1" parent="1">
          <mxGeometry x="170" y="340" width="30" height="25" as="geometry" />
        </mxCell>
        <mxCell id="m9NgzSsKbRpxbCLd3ClR-24" value="&lt;font style=&quot;font-size: 8px;&quot;&gt;0.028&lt;/font&gt;" style="whiteSpace=wrap;html=1;fillColor=#cce5ff;strokeColor=#DBDBDB;fontSize=8;" vertex="1" parent="1">
          <mxGeometry x="200" y="340" width="30" height="25" as="geometry" />
        </mxCell>
        <mxCell id="m9NgzSsKbRpxbCLd3ClR-25" value="&lt;font style=&quot;font-size: 8px;&quot;&gt;0.028&lt;/font&gt;" style="whiteSpace=wrap;html=1;strokeColor=#DBDBDB;fillColor=#cce5ff;fontSize=8;" vertex="1" parent="1">
          <mxGeometry x="230" y="340" width="30" height="25" as="geometry" />
        </mxCell>
        <mxCell id="m9NgzSsKbRpxbCLd3ClR-26" value="&lt;font style=&quot;font-size: 8px;&quot;&gt;0.028&lt;/font&gt;" style="whiteSpace=wrap;html=1;fillColor=#cce5ff;strokeColor=#DBDBDB;fontSize=8;" vertex="1" parent="1">
          <mxGeometry x="260" y="340" width="30" height="25" as="geometry" />
        </mxCell>
        <mxCell id="m9NgzSsKbRpxbCLd3ClR-27" value="&lt;font style=&quot;font-size: 8px;&quot;&gt;0.028&lt;/font&gt;" style="whiteSpace=wrap;html=1;strokeColor=#DBDBDB;fillColor=#cce5ff;fontSize=8;" vertex="1" parent="1">
          <mxGeometry x="290" y="340" width="30" height="25" as="geometry" />
        </mxCell>
        <mxCell id="m9NgzSsKbRpxbCLd3ClR-28" value="&lt;font style=&quot;font-size: 8px;&quot;&gt;0.028&lt;/font&gt;" style="whiteSpace=wrap;html=1;fillColor=#cce5ff;strokeColor=#DBDBDB;fontSize=8;" vertex="1" parent="1">
          <mxGeometry x="320" y="340" width="30" height="25" as="geometry" />
        </mxCell>
        <mxCell id="m9NgzSsKbRpxbCLd3ClR-35" value="&lt;font style=&quot;font-size: 9px;&quot;&gt;great&lt;/font&gt;" style="text;html=1;align=center;verticalAlign=middle;resizable=0;points=[];autosize=1;strokeColor=none;fillColor=none;fontSize=9;" vertex="1" parent="1">
          <mxGeometry x="45" y="370" width="40" height="20" as="geometry" />
        </mxCell>
        <mxCell id="m9NgzSsKbRpxbCLd3ClR-36" value="&lt;font style=&quot;font-size: 9px;&quot;&gt;beer&lt;/font&gt;" style="text;html=1;align=center;verticalAlign=middle;resizable=0;points=[];autosize=1;strokeColor=none;fillColor=none;fontSize=9;" vertex="1" parent="1">
          <mxGeometry x="75" y="370" width="40" height="20" as="geometry" />
        </mxCell>
        <mxCell id="m9NgzSsKbRpxbCLd3ClR-37" value="&lt;font style=&quot;font-size: 9px;&quot;&gt;selection&lt;/font&gt;" style="text;html=1;align=center;verticalAlign=middle;resizable=0;points=[];autosize=1;strokeColor=none;fillColor=none;fontSize=9;" vertex="1" parent="1">
          <mxGeometry x="95" y="370" width="60" height="20" as="geometry" />
        </mxCell>
        <mxCell id="m9NgzSsKbRpxbCLd3ClR-38" value="&lt;font style=&quot;font-size: 9px;&quot;&gt;too&lt;/font&gt;" style="text;html=1;align=center;verticalAlign=middle;resizable=0;points=[];autosize=1;strokeColor=none;fillColor=none;fontSize=9;" vertex="1" parent="1">
          <mxGeometry x="135" y="370" width="40" height="20" as="geometry" />
        </mxCell>
        <mxCell id="m9NgzSsKbRpxbCLd3ClR-39" value="&lt;font style=&quot;font-size: 9px;&quot;&gt;,&lt;/font&gt;" style="text;html=1;align=center;verticalAlign=middle;resizable=0;points=[];autosize=1;strokeColor=none;fillColor=none;fontSize=9;" vertex="1" parent="1">
          <mxGeometry x="170" y="370" width="30" height="20" as="geometry" />
        </mxCell>
        <mxCell id="m9NgzSsKbRpxbCLd3ClR-40" value="&lt;font style=&quot;font-size: 9px;&quot;&gt;something&lt;/font&gt;" style="text;html=1;align=center;verticalAlign=middle;resizable=0;points=[];autosize=1;strokeColor=none;fillColor=none;fontSize=9;" vertex="1" parent="1">
          <mxGeometry x="178" y="370" width="70" height="20" as="geometry" />
        </mxCell>
        <mxCell id="m9NgzSsKbRpxbCLd3ClR-41" value="&lt;span style=&quot;font-size: 9px;&quot;&gt;like&lt;/span&gt;" style="text;html=1;align=center;verticalAlign=middle;resizable=0;points=[];autosize=1;strokeColor=none;fillColor=none;fontSize=9;" vertex="1" parent="1">
          <mxGeometry x="227" y="370" width="40" height="20" as="geometry" />
        </mxCell>
        <mxCell id="m9NgzSsKbRpxbCLd3ClR-42" value="&lt;span style=&quot;font-size: 9px;&quot;&gt;50&lt;/span&gt;" style="text;html=1;align=center;verticalAlign=middle;resizable=0;points=[];autosize=1;strokeColor=none;fillColor=none;fontSize=9;" vertex="1" parent="1">
          <mxGeometry x="260" y="370" width="30" height="20" as="geometry" />
        </mxCell>
        <mxCell id="m9NgzSsKbRpxbCLd3ClR-43" value="&lt;span style=&quot;font-size: 9px;&quot;&gt;beers&lt;/span&gt;" style="text;html=1;align=center;verticalAlign=middle;resizable=0;points=[];autosize=1;strokeColor=none;fillColor=none;fontSize=9;" vertex="1" parent="1">
          <mxGeometry x="280" y="370" width="50" height="20" as="geometry" />
        </mxCell>
        <mxCell id="m9NgzSsKbRpxbCLd3ClR-44" value="&lt;span style=&quot;font-size: 9px;&quot;&gt;.&lt;/span&gt;" style="text;html=1;align=center;verticalAlign=middle;resizable=0;points=[];autosize=1;strokeColor=none;fillColor=none;fontSize=9;" vertex="1" parent="1">
          <mxGeometry x="320" y="370" width="30" height="20" as="geometry" />
        </mxCell>
        <mxCell id="m9NgzSsKbRpxbCLd3ClR-50" value="" style="endArrow=none;html=1;rounded=0;" edge="1" parent="1">
          <mxGeometry width="50" height="50" relative="1" as="geometry">
            <mxPoint x="64" y="370" as="sourcePoint" />
            <mxPoint x="64" y="365" as="targetPoint" />
          </mxGeometry>
        </mxCell>
        <mxCell id="m9NgzSsKbRpxbCLd3ClR-51" value="" style="endArrow=none;html=1;rounded=0;" edge="1" parent="1">
          <mxGeometry width="50" height="50" relative="1" as="geometry">
            <mxPoint x="94" y="370" as="sourcePoint" />
            <mxPoint x="94" y="365" as="targetPoint" />
          </mxGeometry>
        </mxCell>
        <mxCell id="m9NgzSsKbRpxbCLd3ClR-52" value="" style="endArrow=none;html=1;rounded=0;" edge="1" parent="1">
          <mxGeometry width="50" height="50" relative="1" as="geometry">
            <mxPoint x="124" y="370" as="sourcePoint" />
            <mxPoint x="124" y="365" as="targetPoint" />
          </mxGeometry>
        </mxCell>
        <mxCell id="m9NgzSsKbRpxbCLd3ClR-53" value="" style="endArrow=none;html=1;rounded=0;" edge="1" parent="1">
          <mxGeometry width="50" height="50" relative="1" as="geometry">
            <mxPoint x="154" y="370" as="sourcePoint" />
            <mxPoint x="154" y="365" as="targetPoint" />
          </mxGeometry>
        </mxCell>
        <mxCell id="m9NgzSsKbRpxbCLd3ClR-54" value="" style="endArrow=none;html=1;rounded=0;" edge="1" parent="1">
          <mxGeometry width="50" height="50" relative="1" as="geometry">
            <mxPoint x="184" y="370" as="sourcePoint" />
            <mxPoint x="184" y="365" as="targetPoint" />
          </mxGeometry>
        </mxCell>
        <mxCell id="m9NgzSsKbRpxbCLd3ClR-55" value="" style="endArrow=none;html=1;rounded=0;" edge="1" parent="1">
          <mxGeometry width="50" height="50" relative="1" as="geometry">
            <mxPoint x="216" y="370" as="sourcePoint" />
            <mxPoint x="216" y="365" as="targetPoint" />
          </mxGeometry>
        </mxCell>
        <mxCell id="m9NgzSsKbRpxbCLd3ClR-56" value="" style="endArrow=none;html=1;rounded=0;" edge="1" parent="1">
          <mxGeometry width="50" height="50" relative="1" as="geometry">
            <mxPoint x="245" y="370" as="sourcePoint" />
            <mxPoint x="245" y="365" as="targetPoint" />
          </mxGeometry>
        </mxCell>
        <mxCell id="m9NgzSsKbRpxbCLd3ClR-57" value="" style="endArrow=none;html=1;rounded=0;" edge="1" parent="1">
          <mxGeometry width="50" height="50" relative="1" as="geometry">
            <mxPoint x="274" y="370" as="sourcePoint" />
            <mxPoint x="274" y="365" as="targetPoint" />
          </mxGeometry>
        </mxCell>
        <mxCell id="m9NgzSsKbRpxbCLd3ClR-58" value="" style="endArrow=none;html=1;rounded=0;" edge="1" parent="1">
          <mxGeometry width="50" height="50" relative="1" as="geometry">
            <mxPoint x="305" y="370" as="sourcePoint" />
            <mxPoint x="305" y="365" as="targetPoint" />
          </mxGeometry>
        </mxCell>
        <mxCell id="m9NgzSsKbRpxbCLd3ClR-59" value="" style="endArrow=none;html=1;rounded=0;" edge="1" parent="1">
          <mxGeometry width="50" height="50" relative="1" as="geometry">
            <mxPoint x="335" y="370" as="sourcePoint" />
            <mxPoint x="335" y="365" as="targetPoint" />
          </mxGeometry>
        </mxCell>
      </root>
    </mxGraphModel>
  </diagram>
</mxfile>
